<svg xmlns="http://www.w3.org/2000/svg" viewBox="0 0 1024 1024" role="img" aria-label="PC-OFF">
  <title>PC-OFF</title>
  <rect width="1024" height="1024" rx="220" fill="#0b1220"/>
  <path fill="#12c196" d="M318 204c73 0 137 31 178 83 41 52 59 120 40 187-15 55-55 106-119 152L308 736H177c-78 0-141-29-174-82-32-51-14-130 40-184l154-155c55-73 106-111 171-111Z"/>
  <circle cx="201" cy="326" r="31" fill="#0b1220"/>
  <circle cx="202" cy="589" r="31" fill="#0b1220"/>
  <circle cx="289" cy="590" r="28" fill="#0b1220"/>
  <circle cx="374" cy="590" r="28" fill="#0b1220"/>
  <circle cx="459" cy="590" r="28" fill="#0b1220"/>
  <path d="M287 296h177c16 0 29 13 29 29s-13 29-29 29H287c-16 0-29-13-29-29s13-29 29-29ZM196 404h185c16 0 29 13 29 29s-13 29-29 29H196c-16 0-29-13-29-29s13-29 29-29ZM195 511h290c16 0 29 13 29 29s-13 29-29 29H195c-16 0-29-13-29-29s13-29 29-29ZM426 404h78c16 0 29 13 29 29s-13 29-29 29h-78c-16 0-29-13-29-29s13-29 29-29Z" fill="#0b1220"/>
  <path d="M553 722V392h70l96 141 96-141h70v330h-80V528l-86 125h-2l-84-123v192h-80Z" fill="#12c196"/>
</svg>
